<svg width="14" height="14" viewBox="0 0 14 14" fill="none" xmlns="http://www.w3.org/2000/svg">
  <path d="M7 1C6.17157 1 5.5 1.67157 5.5 2.5V6.5C5.5 7.32843 6.17157 8 7 8C7.82843 8 8.5 7.32843 8.5 6.5V2.5C8.5 1.67157 7.82843 1 7 1Z" fill="#8e8e93"/>
  <path d="M4 6C4 5.72386 3.77614 5.5 3.5 5.5C3.22386 5.5 3 5.72386 3 6C3 8.20914 4.79086 10 7 10C9.20914 10 11 8.20914 11 6C11 5.72386 10.7761 5.5 10.5 5.5C10.2239 5.5 10 5.72386 10 6C10 7.65685 8.65685 9 7 9C5.34315 9 4 7.65685 4 6Z" fill="#8e8e93"/>
  <path d="M7 11C7.27614 11 7.5 11.2239 7.5 11.5V12.5C7.5 12.7761 7.27614 13 7 13C6.72386 13 6.5 12.7761 6.5 12.5V11.5C6.5 11.2239 6.72386 11 7 11Z" fill="#8e8e93"/>
  <path d="M5 12.5C5 12.2239 5.22386 12 5.5 12H8.5C8.77614 12 9 12.2239 9 12.5C9 12.7761 8.77614 13 8.5 13H5.5C5.22386 13 5 12.7761 5 12.5Z" fill="#8e8e93"/>
</svg>