<?xml version="1.0" encoding="UTF-8" standalone="no"?>
<svg
   width="14"
   height="14"
   viewBox="0 0 14 14"
   fill="none"
   version="1.1"
   id="svg4"
   sodipodi:docname="micro-whats-received.svg"
   inkscape:version="1.4 (e7c3feb100, 2024-10-09)"
   xmlns:inkscape="http://www.inkscape.org/namespaces/inkscape"
   xmlns:sodipodi="http://sodipodi.sourceforge.net/DTD/sodipodi-0.dtd"
   xmlns="http://www.w3.org/2000/svg"
   xmlns:svg="http://www.w3.org/2000/svg">
  <defs
     id="defs4" />
  <sodipodi:namedview
     id="namedview4"
     pagecolor="#ffffff"
     bordercolor="#666666"
     borderopacity="1.0"
     inkscape:showpageshadow="2"
     inkscape:pageopacity="0.0"
     inkscape:pagecheckerboard="true"
     inkscape:deskcolor="#d1d1d1"
     inkscape:zoom="39.901026"
     inkscape:cx="7.0424255"
     inkscape:cy="4.5863483"
     inkscape:window-width="1920"
     inkscape:window-height="1013"
     inkscape:window-x="0"
     inkscape:window-y="0"
     inkscape:window-maximized="1"
     inkscape:current-layer="svg4" />
  <path
     d="M7 1C6.17157 1 5.5 1.67157 5.5 2.5V6.5C5.5 7.32843 6.17157 8 7 8C7.82843 8 8.5 7.32843 8.5 6.5V2.5C8.5 1.67157 7.82843 1 7 1Z"
     fill="#8e8e93"
     id="path1"
     style="fill:#0b77f3;fill-opacity:1;stroke:#ffffff;stroke-opacity:1;paint-order:markers stroke fill;stroke-width:1.2;stroke-dasharray:none" />
  <path
     id="path2"
     d="M 3.5 5.5 C 3.22386 5.5 3 5.72386 3 6 C 3 8.0395614 4.5271925 9.720428 6.5 9.9667969 L 6.5 12.130859 C 6.5 12.406999 6.7239 12.630859 7 12.630859 C 7.2761 12.630859 7.5 12.406999 7.5 12.130859 L 7.5 9.9667969 C 9.4728075 9.720428 11 8.0395614 11 6 C 11 5.72386 10.7761 5.5 10.5 5.5 C 10.2239 5.5 10 5.72386 10 6 C 10 7.65685 8.65685 9 7 9 C 5.34315 9 4 7.65685 4 6 C 4 5.72386 3.77614 5.5 3.5 5.5 z "
     style="fill:#0b77f3;fill-opacity:1;stroke:#ffffff;stroke-opacity:1;paint-order:markers stroke fill;stroke-width:1.2;stroke-dasharray:none" />
</svg>
