<?xml version="1.0" encoding="UTF-8" standalone="no"?>
<svg
   height="24px"
   viewBox="0 -960 960 960"
   width="24px"
   fill="#1f1f1f"
   version="1.1"
   id="svg4"
   sodipodi:docname="phone_enabled_24dp_1F1F1F_FILL0_wght400_GRAD0_opsz24.svg"
   inkscape:version="1.2.2 (b0a8486541, 2022-12-01)"
   xmlns:inkscape="http://www.inkscape.org/namespaces/inkscape"
   xmlns:sodipodi="http://sodipodi.sourceforge.net/DTD/sodipodi-0.dtd"
   xmlns="http://www.w3.org/2000/svg"
   xmlns:svg="http://www.w3.org/2000/svg">
  <defs
     id="defs8" />
  <sodipodi:namedview
     id="namedview6"
     pagecolor="#ffffff"
     bordercolor="#666666"
     borderopacity="1.0"
     inkscape:showpageshadow="2"
     inkscape:pageopacity="0.0"
     inkscape:pagecheckerboard="0"
     inkscape:deskcolor="#d1d1d1"
     showgrid="false"
     inkscape:zoom="35.083333"
     inkscape:cx="12"
     inkscape:cy="12.014252"
     inkscape:window-width="1920"
     inkscape:window-height="1003"
     inkscape:window-x="0"
     inkscape:window-y="0"
     inkscape:window-maximized="1"
     inkscape:current-layer="svg4" />
  <path
     d="m 120,-798 q 0,-18 12,-30 12,-12 30,-12 h 162 q 13,0 23.5,9 10.5,9 14.5,23 l 28,138 q 2,14 -2.5,28.5 Q 383,-627 374,-618 l -94,94 q 22,38 48.5,72 26.5,34 57.5,65 32,33 66.5,60.5 34.5,27.5 71.5,47.5 l 98,-97 q 8,-8 19,-11 11,-3 27,-1 l 140,26 q 13,2 22.5,13 9.5,11 9.5,25 v 162 q 0,18 -12,30 -12,12 -30,12 -125,0 -247,-54.5 Q 429,-229 329,-329 229,-429 174.5,-551 120,-673 120,-798 Z m 480,556 q 39,17 79,26 40,9 81,14 v -88 l -94,-18 z m -356,-358 66,-66 -20,-94 h -88 q 3,41 14,81 11,40 28,79 z m 356,358 z M 244,-600 Z"
     id="path2" />
</svg>
