<svg width="1200" height="630" viewBox="0 0 1200 630" fill="none" xmlns="http://www.w3.org/2000/svg">
  <!-- Fondo -->
  <rect width="1200" height="630" fill="#f0f0f0"/>
  
  <!-- Fondo central -->
  <rect x="100" y="100" width="1000" height="430" rx="20" fill="white" stroke="#e0e0e0" stroke-width="2"/>
  
  <!-- Header -->
  <rect x="100" y="100" width="1000" height="80" rx="20" fill="#25d366"/>
  <text x="600" y="155" text-anchor="middle" font-family="Arial, sans-serif" font-size="36" font-weight="bold" fill="white">JAWS - Just another WhatsApp Simulator</text>
  
  <!-- Simulador mockup -->
  <rect x="200" y="220" width="300" height="250" rx="15" fill="#1a1a1a"/>
  <rect x="210" y="230" width="280" height="230" rx="10" fill="#0d1418"/>
  
  <!-- Chat header mockup -->
  <rect x="210" y="230" width="280" height="40" fill="#25d366"/>
  <circle cx="230" cy="250" r="10" fill="white"/>
  <text x="250" y="255" font-family="Arial, sans-serif" font-size="12" fill="white">Contacto</text>
  
  <!-- Messages mockup -->
  <rect x="220" y="280" width="150" height="20" rx="10" fill="#dcf8c6"/>
  <rect x="240" y="310" width="120" height="20" rx="10" fill="#ffffff"/>
  <rect x="220" y="340" width="180" height="20" rx="10" fill="#dcf8c6"/>
  
  <!-- Panel de control mockup -->
  <rect x="600" y="220" width="400" height="250" rx="10" fill="#ffffff" stroke="#e0e0e0"/>
  <text x="800" y="250" text-anchor="middle" font-family="Arial, sans-serif" font-size="18" font-weight="bold" fill="#333">Panel de Control</text>
  
  <!-- Features -->
  <text x="620" y="280" font-family="Arial, sans-serif" font-size="14" fill="#666">✓ Personaliza avatares</text>
  <text x="620" y="305" font-family="Arial, sans-serif" font-size="14" fill="#666">✓ Mensajes de texto y voz</text>
  <text x="620" y="330" font-family="Arial, sans-serif" font-size="14" fill="#666">✓ Configuración completa</text>
  <text x="620" y="355" font-family="Arial, sans-serif" font-size="14" fill="#666">✓ Exportar conversaciones</text>
  
  <!-- Footer -->
  <text x="600" y="580" text-anchor="middle" font-family="Arial, sans-serif" font-size="16" fill="#999">Crea conversaciones de WhatsApp realistas para capturas de pantalla</text>
</svg>